<svg xmlns="http://www.w3.org/2000/svg" xmlns:dc="http://purl.org/dc/elements/1.1/" width="256" height="256" viewBox="0 0 256 256">
  <metadata>
    <dc:title>Pomodoro Lock Logo</dc:title>
    <dc:creator>Vinay Gundala</dc:creator>
    <dc:rights>Copyright (c) 2024 Vinay Gundala. All rights reserved.</dc:rights>
    <dc:date>2024</dc:date>
  </metadata>
  <defs>
    <radialGradient id="fleshGradient" cx="50%" cy="50%" r="50%">
      <stop offset="0%" style="stop-color:#fddde2;" />
      <stop offset="80%" style="stop-color:#fca99d;" />
      <stop offset="100%" style="stop-color:#f78b7c;" />
    </radialGradient>
    <filter id="dropShadow" x="-20%" y="-20%" width="140%" height="140%">
      <feDropShadow dx="4" dy="6" stdDeviation="5" flood-color="#000000" flood-opacity="0.3"/>
    </filter>
    <linearGradient id="shackleGradient" x1="0%" y1="0%" x2="100%" y2="100%">
      <stop offset="0%" style="stop-color:#f0f0f0;" />
      <stop offset="100%" style="stop-color:#d0d0d0;" />
    </linearGradient>
  </defs>

  <!-- Main Tomato Slice Group (Padlock Body) -->
  <g id="tomato-padlock-body" filter="url(#dropShadow)">
    <!-- Skin (kidney-shaped top) -->
    <path d="M 128,236 C 70,236 20,195 20,130 C 20,65 60,35 100,45 Q 128,60 156,45 C 196,35 236,65 236,130 C 236,195 186,236 128,236 Z" fill="#d42a2a"/>
    
    <!-- Flesh (kidney-shaped top) -->
    <path d="M 128,228 C 75,228 28,190 28,130 C 28,70 65,45 102,53 Q 128,66 154,53 C 191,45 228,70 228,130 C 228,190 181,228 128,228 Z" fill="url(#fleshGradient)"/>

    <!-- Locules (seed chambers) -->
    <path d="M 128,70 C 150,75 170,95 165,125 C 160,155 140,165 128,160 V 70 Z" fill="#fca99d" opacity="0.6"/>
    <path d="M 128,70 C 106,75 86,95 91,125 C 96,155 116,165 128,160 V 70 Z" fill="#fca99d" opacity="0.6"/>
    <path d="M 128,190 C 106,185 86,165 91,135 C 96,105 116,95 128,100 V 190 Z" fill="#fca99d" opacity="0.6"/>
    <path d="M 128,190 C 150,185 170,165 165,135 C 160,105 140,95 128,100 V 190 Z" fill="#fca99d" opacity="0.6"/>

    <!-- Seeds -->
    <circle cx="145" cy="105" r="3" fill="#fef5d6"/>
    <circle cx="111" cy="105" r="3" fill="#fef5d6"/>
    <circle cx="145" cy="155" r="3" fill="#fef5d6"/>
    <circle cx="111" cy="155" r="3" fill="#fef5d6"/>
    <circle cx="160" cy="130" r="3" fill="#fef5d6"/>
    <circle cx="96" cy="130" r="3" fill="#fef5d6"/>
  </g>
  
  <!-- Clock Face -->
  <g id="clock-face">
    <!-- Tick Marks -->
    <line x1="128" y1="65" x2="128" y2="75" stroke="#4a4a4a" stroke-width="3" stroke-linecap="round"/>
    <line x1="128" y1="195" x2="128" y2="205" stroke="#4a4a4a" stroke-width="3" stroke-linecap="round"/>
    <line x1="60" y1="130" x2="70" y2="130" stroke="#4a4a4a" stroke-width="3" stroke-linecap="round"/>
    <line x1="186" y1="130" x2="196" y2="130" stroke="#4a4a4a" stroke-width="3" stroke-linecap="round"/>
    
    <!-- Hands -->
    <line x1="128" y1="130" x2="128" y2="90" stroke="#333333" stroke-width="6" stroke-linecap="round"/>
    <line x1="128" y1="130" x2="165" y2="130" stroke="#333333" stroke-width="4" stroke-linecap="round"/>
    
    <!-- Center Pin -->
    <circle cx="128" cy="130" r="5" fill="#333333"/>
  </g>
  
  <!-- Padlock Shackle -->
  <g id="lock-shackle">
     <path d="M 100 45 C 100 5, 156 5, 156 45" fill="none" stroke="url(#shackleGradient)" stroke-width="20" stroke-linecap="round"/>
  </g>
</svg> 